<svg xmlns="http://www.w3.org/2000/svg" width="56" height="83.99"><g id="smartphone" fill="#878b8e"><path id="Caminho_3864" data-name="Caminho 3864" d="M40.6 0H15.4a5.6 5.6 0 00-5.6 5.6v18.41a5.633 5.633 0 00-1.247-.21h-.248a4.169 4.169 0 00-4.123 3.7 38.51 38.51 0 01-1.119 5.72 23.451 23.451 0 01-1.145 2.98 15.341 15.341 0 00-1.627 5.848c-.039 1.2.01 2.483.056 3.717.043 1.147.089 2.335.062 3.427-.02.738-.083 1.876-.151 3.159C.1 55.15-.084 58.633.04 60.3a11.147 11.147 0 002.5 6.918c.445.635.966 1.377 1.571 2.36.245.395.507.795.772 1.2A9.7 9.7 0 017 75.66v4.13a4.2 4.2 0 004.2 4.2H28a4.2 4.2 0 004.2-4.2v-5.6a1.446 1.446 0 01.752-1.236 21.482 21.482 0 007.013-5.763h.635a5.591 5.591 0 005.419-4.218c.062 0 .119.018.181.018h1.442a5.57 5.57 0 004.236-9.221 5.526 5.526 0 001.37-8.382A5.582 5.582 0 0050.4 35h-4.2v-2.581l4.867-2.012a5.605 5.605 0 00-4.142-10.417l-.728.29V5.6A5.6 5.6 0 0040.6 0zM35 2.8v1.4a1.4 1.4 0 01-1.4 1.4H22.4A1.4 1.4 0 0121 4.2V2.8zm-3.428 67.72a4.246 4.246 0 00-2.17 3.67v5.6a1.4 1.4 0 01-1.4 1.4H11.2a1.4 1.4 0 01-1.4-1.4v-4.13a11.9 11.9 0 00-2.572-6.424c-.251-.381-.5-.756-.726-1.13-.641-1.04-1.193-1.82-1.662-2.5a8.539 8.539 0 01-2.007-5.519c-.11-1.485.074-4.869.221-7.586.07-1.316.14-2.483.154-3.241.029-1.182-.017-2.412-.062-3.6-.046-1.242-.087-2.414-.046-3.52a12.729 12.729 0 011.385-4.82 26.087 26.087 0 001.271-3.343 41.338 41.338 0 001.2-6.152A1.369 1.369 0 018.305 26.6h.228a3.388 3.388 0 011.643.57 1.375 1.375 0 00.388.293c1.022.869 2.04 2.609 2.04 6.137a.479.479 0 00.017.2c.24 4.124-2.741 10.8-3.442 11.145A1.39 1.39 0 009.8 47.58v14.012a5.6 5.6 0 005.6 5.6h20.811a24.157 24.157 0 01-4.639 3.328zm9.028-6.127H15.4a2.8 2.8 0 01-2.8-2.8V44.982A30.884 30.884 0 0015.395 33.6h.005c0-4.271-1.32-6.679-2.8-8.038V5.6a2.8 2.8 0 012.8-2.8h2.8v1.4a4.2 4.2 0 004.2 4.2h11.2a4.2 4.2 0 004.2-4.2V2.8h2.8a2.8 2.8 0 012.8 2.8v30.174a5.539 5.539 0 00-.865 9.02 5.55 5.55 0 00-.013 8.41 5.54 5.54 0 00.8 8.969 2.784 2.784 0 01-2.722 2.219zm8.4-12.6h-2.8a2.56 2.56 0 01-.946-.177 2.76 2.76 0 01-1.854-2.622 2.8 2.8 0 012.8-2.8H49a2.8 2.8 0 010 5.6zm-1.358 8.4H46.2a2.8 2.8 0 110-5.6h1.442a2.8 2.8 0 010 5.6zm5.558-19.6a2.8 2.8 0 01-2.8 2.8h-4.2a2.8 2.8 0 010-5.6h4.2a2.8 2.8 0 012.8 2.802zm-5.24-18a2.8 2.8 0 112.056 5.215L46.2 29.4v-6.1zm0 0"/><path id="Caminho_3865" data-name="Caminho 3865" d="M140.633 358.4h-11.2a1.4 1.4 0 000 2.8h11.2a1.4 1.4 0 100-2.8zm0 0" transform="translate(-107.032 -299.605)"/><path id="Caminho_3866" data-name="Caminho 3866" d="M78.232 460.8a1.4 1.4 0 100 2.8h1.4a1.4 1.4 0 100-2.8zm0 0" transform="translate(-64.228 -385.21)"/><path id="Caminho_3867" data-name="Caminho 3867" d="M120.9 463.6h4.2a1.4 1.4 0 100-2.8h-4.2a1.4 1.4 0 100 2.8zm0 0" transform="translate(-99.897 -385.21)"/></g></svg>