<svg xmlns="http://www.w3.org/2000/svg" width="73.985" height="73.982"><g id="recruitment" transform="translate(0 -.009)"><g id="Grupo_3473" data-name="Grupo 3473" transform="translate(0 15.365)"><g id="Grupo_3472" data-name="Grupo 3472"><path id="Caminho_3898" data-name="Caminho 3898" d="M66.605 129.715a6.045 6.045 0 001.036-3.391v-1.159a6.078 6.078 0 00-10.371-4.3 21.388 21.388 0 00-40.555 0 6.078 6.078 0 00-10.371 4.3v1.159a6.045 6.045 0 001.036 3.391A9.314 9.314 0 000 138.813v2.909a1.445 1.445 0 001.445 1.445h7.514a1.445 1.445 0 100-2.89H2.89v-1.464a6.415 6.415 0 016.41-6.408h6.839a21.266 21.266 0 002.838 6.767L2.488 155.66a5.415 5.415 0 007.658 7.658l9.09-9.09a1.445 1.445 0 00-2.044-2.044l-9.092 9.09a2.525 2.525 0 11-3.568-3.574l16.185-16.185a21.376 21.376 0 0037.131-9.113h6.839a6.415 6.415 0 016.408 6.408v1.464H57.511a1.445 1.445 0 100 2.89H72.54a1.445 1.445 0 001.445-1.445v-2.909a9.314 9.314 0 00-7.38-9.095zm-50.991-3.391a3.191 3.191 0 01-6.381 0v-1.159a3.191 3.191 0 016.381 0zm21.378 19.833a18.5 18.5 0 1118.5-18.5 18.517 18.517 0 01-18.5 18.5zm27.759-19.833a3.191 3.191 0 01-6.381 0v-1.159a3.191 3.191 0 016.381 0z" transform="translate(0 -106.275)" fill="#878b8e"/></g></g><g id="Grupo_3475" data-name="Grupo 3475" transform="translate(21.386 21.145)"><g id="Grupo_3474" data-name="Grupo 3474"><path id="Caminho_3899" data-name="Caminho 3899" d="M163.606 146.275a15.6 15.6 0 00-10.7 26.954 1.444 1.444 0 00.168.156 15.577 15.577 0 0021.069 0 1.43 1.43 0 00.168-.156 15.6 15.6 0 00-10.7-26.954zm0 28.322a12.654 12.654 0 01-7.875-2.739 8.918 8.918 0 0115.75 0 12.654 12.654 0 01-7.875 2.742zm-3.045-13.407v-1.123a3.045 3.045 0 116.09 0v1.123a3.045 3.045 0 11-6.09 0zm13.034 8.551a11.7 11.7 0 00-5.529-4.641 5.909 5.909 0 001.476-3.91v-1.123a5.935 5.935 0 10-11.87 0v1.123a5.908 5.908 0 001.476 3.91 11.706 11.706 0 00-5.529 4.641 12.716 12.716 0 1119.977 0z" transform="translate(-148 -146.275)" fill="#878b8e"/></g></g><g id="Grupo_3477" data-name="Grupo 3477" transform="translate(20.635 56.986)"><g id="Grupo_3476" data-name="Grupo 3476"><path id="Caminho_3900" data-name="Caminho 3900" d="M145.267 394.732a1.444 1.444 0 10.423 1.022 1.456 1.456 0 00-.423-1.022z" transform="translate(-142.8 -394.309)" fill="#878b8e"/></g></g><g id="Grupo_3479" data-name="Grupo 3479" transform="translate(35.577 .009)"><g id="Grupo_3478" data-name="Grupo 3478"><path id="Caminho_3901" data-name="Caminho 3901" d="M247.648.009a1.445 1.445 0 00-1.448 1.445v4.917a1.445 1.445 0 102.89 0V1.454a1.445 1.445 0 00-1.442-1.445z" transform="translate(-246.203 -.009)" fill="#878b8e"/></g></g><g id="Grupo_3481" data-name="Grupo 3481" transform="translate(35.576 9.691)"><g id="Grupo_3480" data-name="Grupo 3480"><path id="Caminho_3902" data-name="Caminho 3902" d="M248.666 67.432a1.444 1.444 0 10.424 1.022 1.453 1.453 0 00-.424-1.022z" transform="translate(-246.2 -67.009)" fill="#878b8e"/></g></g><g id="Grupo_3483" data-name="Grupo 3483" transform="translate(44.265 5.254)"><g id="Grupo_3482" data-name="Grupo 3482"><path id="Caminho_3903" data-name="Caminho 3903" d="M311.338 36.73a1.445 1.445 0 00-2.044 0l-2.54 2.54a1.445 1.445 0 002.044 2.044l2.54-2.54a1.445 1.445 0 000-2.044z" transform="translate(-306.331 -36.307)" fill="#878b8e"/></g></g><g id="Grupo_3485" data-name="Grupo 3485" transform="translate(24.289 5.247)"><g id="Grupo_3484" data-name="Grupo 3484"><path id="Caminho_3904" data-name="Caminho 3904" d="M173.122 39.246l-2.564-2.564a1.445 1.445 0 00-2.044 2.044l2.564 2.564a1.445 1.445 0 102.044-2.044z" transform="translate(-168.091 -36.259)" fill="#878b8e"/></g></g></g></svg>