<svg xmlns="http://www.w3.org/2000/svg" width="84.091" height="84"><g id="computer" transform="translate(0 .001)" fill="#878b8e"><path id="Caminho_3871" data-name="Caminho 3871" d="M36.885 28.762a3.612 3.612 0 103.615 3.611 3.616 3.616 0 00-3.615-3.611zm0 4.762a1.15 1.15 0 111.15-1.15 1.152 1.152 0 01-1.15 1.149zm0 0" transform="translate(-27.808 -24.038)"/><path id="Caminho_3872" data-name="Caminho 3872" d="M92.87 28.762a3.612 3.612 0 103.611 3.611 3.616 3.616 0 00-3.611-3.611zm0 4.762a1.15 1.15 0 111.15-1.15 1.151 1.151 0 01-1.15 1.149zm0 0" transform="translate(-74.598 -24.038)"/><path id="Caminho_3873" data-name="Caminho 3873" d="M148.857 28.762a3.612 3.612 0 103.612 3.611 3.616 3.616 0 00-3.612-3.611zm0 4.762a1.15 1.15 0 111.15-1.15 1.152 1.152 0 01-1.15 1.149zm0 0" transform="translate(-121.39 -24.038)"/><path id="Caminho_3874" data-name="Caminho 3874" d="M82.767 24.278A1.231 1.231 0 0084 23.047l.093-17.631A5.422 5.422 0 0078.675 0H5.417A5.423 5.423 0 000 5.416v59.548a5.416 5.416 0 005.417 5.416h23.947v4.414h-3.716a4.5 4.5 0 00-4.5 4.495v2.659A2.053 2.053 0 0023.2 84h5.869a1.231 1.231 0 000-2.462h-5.455v-2.249a2.036 2.036 0 012.034-2.034h32.7a2.036 2.036 0 012.034 2.034v2.249H36.713a1.231 1.231 0 000 2.462h24.081a2.053 2.053 0 002.051-2.051v-2.66a4.5 4.5 0 00-4.5-4.495h-3.711V70.38h23.947a5.358 5.358 0 00.823-.063A5.424 5.424 0 0084 64.964V30.677a1.231 1.231 0 10-2.461 0v27.157H43.066V16.74h38.47v6.307a1.231 1.231 0 001.231 1.231zM2.553 16.74H40.6v41.006H2.553zm49.62 58.054H31.826V70.38h20.347zM81.536 60.3v4.668a2.96 2.96 0 01-2.653 2.94c-.1.01-.2.015-.3.015H5.417c-.1 0-.2-.005-.3-.015a2.96 2.96 0 01-2.653-2.94V60.3zm-39.7-46.017H2.552V5.415a2.958 2.958 0 012.955-2.954h73.074a2.958 2.958 0 012.955 2.955v8.862zm0 0"/><path id="Caminho_3875" data-name="Caminho 3875" d="M40.641 119.27h6.235a1.231 1.231 0 000-2.461h-6.235a1.231 1.231 0 100 2.461zm0 0" transform="translate(-32.937 -97.625)"/><path id="Caminho_3876" data-name="Caminho 3876" d="M104.586 119.27h2.954a1.231 1.231 0 000-2.461h-2.954a1.231 1.231 0 100 2.461zm0 0" transform="translate(-86.38 -97.625)"/><path id="Caminho_3877" data-name="Caminho 3877" d="M76.716 143.258h-4.1a1.231 1.231 0 000 2.462h4.1a1.231 1.231 0 100-2.462zm0 0" transform="translate(-59.659 -119.73)"/><path id="Caminho_3878" data-name="Caminho 3878" d="M194.61 170.656h-4.1a1.231 1.231 0 100 2.461h4.1a1.231 1.231 0 100-2.461zm0 0" transform="translate(-158.19 -142.628)"/><path id="Caminho_3879" data-name="Caminho 3879" d="M119.34 144.489a1.231 1.231 0 001.23 1.23h9.845a1.231 1.231 0 100-2.462h-9.845a1.231 1.231 0 00-1.23 1.232zm0 0" transform="translate(-99.739 -119.73)"/><path id="Caminho_3880" data-name="Caminho 3880" d="M95.359 171.886a1.231 1.231 0 001.231 1.231h2.133a1.231 1.231 0 100-2.461h-2.132a1.231 1.231 0 00-1.232 1.23zm0 0" transform="translate(-79.697 -142.628)"/><path id="Caminho_3881" data-name="Caminho 3881" d="M137.466 173.118a1.231 1.231 0 100-2.461h-5.907a1.231 1.231 0 100 2.461zm0 0" transform="translate(-108.923 -142.629)"/><path id="Caminho_3884" data-name="Caminho 3884" d="M77.947 295.457a1.231 1.231 0 00-1.231-1.23h-4.1a1.231 1.231 0 000 2.462h4.1a1.231 1.231 0 001.231-1.232zm0 0" transform="translate(-59.659 -245.904)"/><path id="Caminho_3887" data-name="Caminho 3887" d="M131.646 295.457a1.231 1.231 0 00-1.231-1.23h-9.845a1.231 1.231 0 000 2.462h9.845a1.231 1.231 0 001.231-1.232zm0 0" transform="translate(-99.739 -245.904)"/><path id="Caminho_3889" data-name="Caminho 3889" d="M40.641 207.454h3.446a1.231 1.231 0 100-2.461h-3.446a1.231 1.231 0 100 2.461zm0 0" transform="translate(-32.937 -171.325)"/><path id="Caminho_3890" data-name="Caminho 3890" d="M96.471 206.222a1.23 1.23 0 00-1.23-1.23H82.605a1.231 1.231 0 100 2.461H95.24a1.23 1.23 0 001.231-1.231zm0 0" transform="translate(-68.01 -171.325)"/><path id="Caminho_3891" data-name="Caminho 3891" d="M85.823 232.672a1.231 1.231 0 00-1.231-1.23H72.614a1.231 1.231 0 000 2.462h11.978a1.231 1.231 0 001.231-1.232zm0 0" transform="translate(-59.659 -193.431)"/><path id="Caminho_3892" data-name="Caminho 3892" d="M166.528 233.9h2.3a1.231 1.231 0 100-2.462h-2.3a1.231 1.231 0 100 2.462zm0 0" transform="translate(-138.148 -193.43)"/><path id="Caminho_3897" data-name="Caminho 3897" d="M317.769 119.989a3.184 3.184 0 00-3.18-3.18h-24.072a3.184 3.184 0 00-3.18 3.18v19.583a3.184 3.184 0 003.18 3.18h24.073a3.184 3.184 0 003.18-3.18zm-2.461 19.584a.719.719 0 01-.719.719h-24.072a.719.719 0 01-.719-.719v-2.406l9.014-9.009 6.221 7.011a1.231 1.231 0 101.841-1.633l-.565-.636 2.782-2.781 6.216 7.006zm0-6.157l-4.737-5.338a1.948 1.948 0 00-2.835-.085l-3.063 3.061-4.382-4.937a1.949 1.949 0 00-2.835-.085l-7.658 7.655v-13.7a.72.72 0 01.719-.719h24.073a.72.72 0 01.719.719zm0 0" transform="translate(-240.144 -93.625)"/></g></svg>