<svg version="1.0" xmlns="http://www.w3.org/2000/svg" width="1209.333" height="321.333" viewBox="0 0 907 241"><path d="M68.2 1.5c-5 1.5-7.7 3.7-10.1 8-1.4 2.6-1.7 9.3-2.1 57l-.5 54-2.4 4.8c-4.6 9.4-10.3 11.7-28.8 11.7-19.7 0-22.7 2.1-23.9 16.2-1 11.1 1.3 17.8 8 24.4 9 8.8 23 12.2 45 11.1 36-1.9 56.8-15.9 64.3-43.7 1.6-5.9 1.8-12.2 1.8-66 0-55.2-.1-59.8-1.8-64.2-3.2-8.3-9.6-12.1-23-13.8-10.9-1.3-21.2-1.2-26.5.5zM217 1c-33.4 4.7-60 24.7-71.4 53.7-12.8 32.6-8.2 74.7 10.8 99.1 19.4 25 47.7 36.7 84.5 34.9 16.4-.8 29.4-4.1 43.1-10.8 9-4.5 11.7-6.4 19.6-14.3 18.1-18.1 25.6-38.1 25.6-68.6 0-29.3-8.1-51.1-25.6-68.6-12.2-12.1-27-19.9-46-24C249.1.5 226.1-.2 217 1zm29.5 50.4c12.6 5.8 19.5 20.7 19.5 42.1 0 19-3.4 30.1-11.9 38.5-6.5 6.4-10.5 8-20.8 8-19.6 0-31.3-16.9-31.3-45.5 0-16.8 3.4-28.6 10.6-36.5 5.7-6.3 12.1-9 21.4-9 5.8 0 8.7.6 12.5 2.4zm177-50.3c-31.1 4.1-55 19.8-66.5 43.5-6.8 13.8-8.3 21.2-8.4 41.9-.1 19.4 1.1 27.1 5.9 39.6 8.6 21.8 21.8 32.8 46.2 38.5 5.2 1.2 57 7.4 61.9 7.4 1.9 0 1.8 6.3-.2 10.5-.8 1.8-3.3 4.5-5.5 5.9-4.2 2.8-13.4 5.6-18.5 5.6-4.5 0-7.6 1.3-12 5.2-4.9 4.4-7.6 10.5-7.5 17.6 0 9.4 3.8 16.2 11.6 20.7 5.6 3.4 11.9 4 24.6 2.6 38-4.4 60.9-20.7 67.4-48.2 1.2-5.4 1.5-17.8 1.5-79.5 0-52.4-.3-74.1-1.1-76.5-4.7-13.6-26.7-27.5-52.4-33-10.5-2.3-36.3-3.3-47-1.8zm36.4 51.3c4.6 4.4 5.3 9.6 4.9 37.6-.3 27.6-1 30.6-7.7 34.4-4.9 2.8-18.8 3.4-26.6 1.2-7.5-2.2-14.2-8.8-17.6-17.2-2.1-5.3-2.4-7.5-2.4-20.4 0-13.8.1-14.8 2.8-20.5 6.4-13.7 15.4-18.6 33.4-18.2 9.7.2 10.3.3 13.2 3.1zM618.5 1.1c-23.9 3.2-46 14.5-58.1 29.7-5.8 7.4-11.9 19.6-14.6 29.7-1.8 6.8-2.2 10.8-2.2 26.5-.1 20.6 1.5 29.6 7.3 42.3 9.6 21.3 23.4 31.4 49.3 36.1 7.1 1.3 53.2 6.6 57.4 6.6 1.9 0 1.9 6.2 0 9.8-3.1 6-10.9 10.5-20.1 11.7-10.5 1.3-11.7 1.7-15.6 5.2-4.7 4.2-6.4 7.3-7.9 13.7-2.8 12.8 6.6 26.2 19.9 28.2 5.7.9 23-1 34.1-3.6 26.3-6.3 44.8-23.3 49.5-45.7 1.2-5.6 1.5-20.1 1.5-79.8v-73l-2.3-5c-5.9-12.6-27.6-25.6-51.2-30.7-10.5-2.2-36.3-3.2-47-1.7zM654 51.5c5.3 4.8 5.5 6 5.5 35.5 0 26-.1 27.7-2.1 31.5-3.2 6-7.1 7.9-18 8.3-11 .5-17.1-1.2-23.2-6.4-8.6-7.4-13.3-23.8-11.2-39.7 1.3-10.1 3.5-15.9 8.2-21.2 7.1-8.1 14.1-10.6 28.5-10.2 8.5.2 10.5.6 12.3 2.2zM819 .9c-11.8 3.9-18.9 14.2-17.7 25.7 1.2 11.7 9.2 19.6 21 20.7 7.7.7 16.6 3.9 19.5 7 4.3 4.6 6.9 14.7 3.8 14.7-6.2 0-57.6 6.4-64.4 8-22.9 5.5-36.7 17.6-41.7 36.7-1.8 6.7-2 22-.4 29.5 5.2 24.9 28.3 40.9 64.8 44.9 13 1.4 39.1.6 51.6-1.6 23.1-4.1 42.7-14.6 48.8-25.9 2.2-4.1 2.2-4.4 2.2-55.6s0-51.5-2.3-59c-3.1-9.9-7.3-17.1-13.7-23.5-13-13-33.4-20.5-59-21.9-5.5-.3-11.1-.2-12.5.3zm28 123.7v14.5l-3.4 1.4c-6.2 2.6-20.9 3.9-28.9 2.6-12.1-2-16.7-6.4-16.7-16 0-6.1 2.9-10.1 9.2-12.6 4-1.6 24.3-4.1 35.1-4.4l4.7-.1v14.6z"/></svg>