<svg id="telephone" xmlns="http://www.w3.org/2000/svg" width="29.139" height="29.139"><g id="Grupo_3454" data-name="Grupo 3454" fill="#4085ec"><path id="Caminho_3857" data-name="Caminho 3857" d="M22.159 62.616a2.042 2.042 0 00-3.086 0c-.722.716-1.443 1.431-2.153 2.159a.425.425 0 01-.594.109c-.467-.255-.964-.461-1.413-.74a22.385 22.385 0 01-5.4-4.912 12.785 12.785 0 01-1.934-3.1.444.444 0 01.109-.57c.722-.7 1.425-1.413 2.134-2.128a2.05 2.05 0 00-.006-3.159c-.564-.57-1.128-1.128-1.692-1.7-.578-.575-1.154-1.166-1.742-1.743a2.055 2.055 0 00-3.086.006c-.728.716-1.425 1.449-2.165 2.153a3.514 3.514 0 00-1.1 2.371A10.045 10.045 0 00.8 55.685a26.271 26.271 0 004.663 7.767 28.855 28.855 0 009.556 7.476 13.821 13.821 0 005.294 1.54 3.879 3.879 0 003.332-1.268c.618-.691 1.316-1.322 1.971-1.983a2.063 2.063 0 00.012-3.141q-1.728-1.735-3.469-3.46z" transform="translate(-.006 -43.34)"/><path id="Caminho_3858" data-name="Caminho 3858" d="M244.427 104.622l2.237-.382a10.043 10.043 0 00-8.5-8.24l-.315 2.25a7.762 7.762 0 016.573 6.373z" transform="translate(-223.432 -90.179)"/><path id="Caminho_3859" data-name="Caminho 3859" d="M252.529 4.717A16.5 16.5 0 00243.069 0l-.315 2.25a14.4 14.4 0 0112.182 11.806l2.238-.382a16.619 16.619 0 00-4.645-8.957z" transform="translate(-228.035)"/></g></svg>